{"title":"The Swap 2016 WEB-DL x264-FGT","uid":15985891,"size":832257222,"categoryP":"video","categoryS":"movies","magnet":"?xt=urn:btih:cea737f0aaf9d6e63eda21b98832ae831926db2c&amp;dn=The+Swap+2016+WEB-DL+x264-FGT&amp;tr=udp%3A%2F%2Ftracker.leechers-paradise.org%3A6969&amp;tr=udp%3A%2F%2Fzer0day.ch%3A1337&amp;tr=udp%3A%2F%2Fopen.demonii.com%3A1337&amp;tr=udp%3A%2F%2Ftracker.coppersurfer.tk%3A6969&amp;tr=udp%3A%2F%2Fexodus.desync.com%3A6969","seeders":4,"leechers":2,"uploader":"PirateNeon2","files":1,"time":1475968997,"description":"Plot:\tEllie O'Brien (List) is trying to juggle rhythmic gymnastics and troubles with her best friend. Meanwhile| classmate Jack Malloy (Bertrand) is struggling to live up\r\nto his brothers' hockey-star legacies and his dad's high expectations and tough-love approach. When a text argument about whose life is easier gets out of hand|\r\nEllie and Jack trigger an explainable real-life swap. As each tries to navigate the other's life| hilarity ensues when Ellie (as Jack) learns about brotherly bonding\r\nand hockey lingo| while Jack (as Ellie) has to decipher girl code and experiences a spa day. With a rhythmic gymnastics championship and a spot on the varsity hockey\r\nteam on the line| they must figure out how to get back in their own bodies before the swap becomes permanent. As they are forced to literally walk in each other's\r\nshoes| they gain empathy for one another and learn valuable lessons about their own lives.\r\n\r\nVideo\r\nID                                       : 1\r\nFormat                                   : AVC\r\nFormat/Info                              : Advanced Video Codec\r\nFormat profile                           :   \r\nFormat settings, CABAC                   : Yes\r\nFormat settings, ReFrames                : 5 frames\r\nCodec ID                                 : avc1\r\nCodec ID/Info                            : Advanced Video Coding\r\nDuration                                 : 1h 29mn\r\nBit rate                                 : 1 100 Kbps\r\nWidth                                    : 720 pixels\r\nHeight                                   : 400 pixels\r\nDisplay aspect ratio                     : 16:9\r\nFrame rate mode                          : Constant\r\nFrame rate                               : 23.976 (24000/1001) fps\r\nColor space                              : YUV\r\nChroma subsampling                       : 4:2:0\r\nBit depth                                : 8 bits\r\nScan type                                : Progressive\r\nBits/(Pixel*Frame)                       : 0.159\r\nStream size                              : 708 MiB (89%)\r\nTitle                                    : The.Swap.2016.WEB-DL.x264-FGT\r\nWriting library                          : x264 core 148 r2694 3b70645\r\n\r\nAudio\r\nID                                       : 2\r\nFormat                                   : AAC\r\nFormat/Info                              : Advanced Audio Codec\r\nFormat profile                           : LC\r\nCodec ID                                 : 40\r\nDuration                                 : 1h 29mn\r\nDuration_LastFrame                       : 32ms\r\nBit rate mode                            : Constant\r\nBit rate                                 : 128 Kbps\r\nChannel(s)                               : 2 channels\r\nChannel positions                        : Front: L R\r\nSampling rate                            : 48.0 KHz\r\nFrame rate                               : 46.875 fps (1024 spf)\r\nCompression mode                         : Lossy\r\nStream size                              : 82.2 MiB (10%)\r\nTitle                                    : The.Swap.2016.WEB-DL.x264-FGT\r\nLanguage                                 : English\r\nDefault                                  : Yes\r\nAlternate group                          : 1","torrent":{"xt":"urn:btih:cea737f0aaf9d6e63eda21b98832ae831926db2c","amp;dn":"The+Swap+2016+WEB-DL+x264-FGT","amp;tr":["udp%3A%2F%2Ftracker.leechers-paradise.org%3A6969","udp%3A%2F%2Fzer0day.ch%3A1337","udp%3A%2F%2Fopen.demonii.com%3A1337","udp%3A%2F%2Ftracker.coppersurfer.tk%3A6969","udp%3A%2F%2Fexodus.desync.com%3A6969"],"infoHash":"cea737f0aaf9d6e63eda21b98832ae831926db2c","infoHashBuffer":{"type":"Buffer","data":[206,167,55,240,170,249,214,230,62,218,33,185,136,50,174,131,25,38,219,44]},"announce":[],"urlList":[]}}